<svg width="893" height="324" viewBox="0 0 893 324" fill="none" xmlns="http://www.w3.org/2000/svg">
<path d="M681.7 102.6C685.367 98.9333 689.767 97.1 694.9 97.1C700.033 97.1 704.433 98.9333 708.1 102.6C711.767 106.2 713.6 110.567 713.6 115.7C713.6 120.833 711.767 125.233 708.1 128.9C704.433 132.567 700.033 134.4 694.9 134.4C689.767 134.4 685.367 132.567 681.7 128.9C678.1 125.233 676.3 120.833 676.3 115.7C676.3 110.567 678.1 106.2 681.7 102.6ZM705.8 104.8C702.8 101.8 699.167 100.3 694.9 100.3C690.633 100.3 687 101.8 684 104.8C681 107.8 679.5 111.433 679.5 115.7C679.5 119.967 681 123.6 684 126.6C687 129.6 690.633 131.1 694.9 131.1C699.167 131.1 702.8 129.6 705.8 126.6C708.8 123.6 710.3 119.967 710.3 115.7C710.3 111.433 708.8 107.8 705.8 104.8ZM687.1 105.3H694.5C700.633 105.3 703.7 107.333 703.7 111.4C703.7 113.8 702.433 115.433 699.9 116.3C701.233 116.833 702.133 117.567 702.6 118.5C703.067 119.367 703.333 120.933 703.4 123.2C703.4 124.267 703.567 125.2 703.9 126H699.1C698.833 125.467 698.667 124.5 698.6 123.1C698.533 121.1 698.2 119.8 697.6 119.2C697.067 118.6 695.867 118.3 694 118.3H692V126H687.1V105.3ZM692 114.5H694.3C697.3 114.5 698.8 113.6 698.8 111.8C698.8 110 697.3 109.1 694.3 109.1H692V114.5Z" fill="#ADFF00"/>
<path d="M185.078 267V104.944H145.771L99.7266 219.832H98.8281L52.7832 104.944H13.4766V267H43.6865V157.615H44.585L88.6084 265.428H109.946L153.97 157.615H154.868V267H185.078ZM258.642 168.284C273.242 168.284 283.237 178.841 283.911 194.227H232.812C233.935 179.178 244.267 168.284 258.642 168.284ZM284.36 230.164C281.328 239.373 272.119 245.325 260.102 245.325C243.369 245.325 232.475 233.533 232.475 216.351V214.329H315.468V204.334C315.468 167.723 293.344 144.026 258.305 144.026C222.705 144.026 200.244 168.958 200.244 207.366C200.244 245.887 222.48 269.583 259.541 269.583C289.301 269.583 310.864 253.748 314.458 230.164H284.36ZM372.524 268.909C390.268 268.909 404.194 259.588 410.033 246.336H410.595V267H442.939V104.944H410.146V167.273H409.472C403.632 153.909 390.155 144.7 372.748 144.7C342.538 144.7 323.446 168.396 323.446 206.58C323.446 245.101 342.426 268.909 372.524 268.909ZM383.642 170.979C399.926 170.979 410.37 184.905 410.37 206.805C410.37 228.816 399.926 242.518 383.642 242.518C367.133 242.518 357.026 228.929 357.026 206.805C357.026 184.793 367.133 170.979 383.642 170.979ZM514.257 168.284C528.856 168.284 538.851 178.841 539.525 194.227H488.427C489.55 179.178 499.882 168.284 514.257 168.284ZM539.974 230.164C536.942 239.373 527.733 245.325 515.717 245.325C498.983 245.325 488.09 233.533 488.09 216.351V214.329H571.083V204.334C571.083 167.723 548.959 144.026 513.92 144.026C478.319 144.026 455.858 168.958 455.858 207.366C455.858 245.887 478.095 269.583 515.155 269.583C544.916 269.583 566.478 253.748 570.072 230.164H539.974ZM629.935 245.213C618.817 245.213 611.405 239.598 611.405 230.613C611.405 222.078 618.368 216.575 630.609 215.677L655.99 214.104V222.864C655.99 235.892 644.198 245.213 629.935 245.213ZM619.154 268.909C634.203 268.909 649.139 261.385 655.877 248.582H656.551V267H688.221V184.231C688.221 159.974 668.119 144.026 637.235 144.026C605.34 144.026 585.462 160.086 584.227 183.445H614.212C615.785 174.573 623.534 168.509 635.775 168.509C648.128 168.509 655.99 175.022 655.99 186.253V194.227L625.667 196.023C595.682 197.82 578.836 210.511 578.836 232.41C578.836 254.085 596.244 268.909 619.154 268.909Z" fill="#B4FE17"/>
</svg>
