<svg width="189" height="198" viewBox="0 0 189 198" fill="none" xmlns="http://www.w3.org/2000/svg">
<path d="M145.873 105.156L154.76 86.8892V198H145.873V105.156ZM162.659 75.0407L172.533 51.8682V198H162.659V75.0407ZM112.561 116.511L107.624 106.174L162.659 0H172.533L112.561 116.511ZM103.675 99.7251L99.4667 90.8387L145.873 0H154.76L103.675 99.7251ZM34.2998 84.4516L43.1862 102.946V198H34.2998V84.4516ZM17.5144 51.8682L26.4008 69.641V198H17.5144V51.8682ZM81.6939 146.348H71.8201L8.6087 16.3804V198H0V0H9.68478L81.6939 146.348ZM99.4667 146.348H89.5929L17.5144 0H29.2935L99.4667 146.348ZM180.432 16.3804L119.207 146.348H106.378L37.2619 0H48.663L114.536 133.296L180.432 0H188.589V198H180.432V16.3804Z" fill="#373737"/>
</svg>
